<mxfile host="app.diagrams.net" agent="Mozilla/5.0 (Windows NT 10.0; Win64; x64) AppleWebKit/537.36 (KHTML, like Gecko) Chrome/133.0.0.0 Safari/537.36" version="26.1.0">
  <diagram name="PÃ¡gina-1" id="tlgUFgWJ8016xR1bFmX6">
    <mxGraphModel dx="4114" dy="2862" grid="1" gridSize="10" guides="1" tooltips="1" connect="1" arrows="1" fold="1" page="1" pageScale="1" pageWidth="827" pageHeight="1169" math="0" shadow="0">
      <root>
        <mxCell id="0" />
        <mxCell id="1" parent="0" />
        <mxCell id="EN3vZPTE7ob6RZtya6nI-55" style="edgeStyle=orthogonalEdgeStyle;rounded=0;orthogonalLoop=1;jettySize=auto;html=1;exitX=0;exitY=0.5;exitDx=0;exitDy=0;entryX=1;entryY=0.5;entryDx=0;entryDy=0;" edge="1" parent="1" source="EN3vZPTE7ob6RZtya6nI-14" target="EN3vZPTE7ob6RZtya6nI-45">
          <mxGeometry relative="1" as="geometry" />
        </mxCell>
        <mxCell id="EN3vZPTE7ob6RZtya6nI-14" value="tiene" style="rhombus;whiteSpace=wrap;html=1;" vertex="1" parent="1">
          <mxGeometry x="1" y="-92.5" width="120" height="80" as="geometry" />
        </mxCell>
        <mxCell id="EN3vZPTE7ob6RZtya6nI-15" value="estado" style="ellipse;whiteSpace=wrap;html=1;" vertex="1" parent="1">
          <mxGeometry x="620" y="-450" width="80" height="50" as="geometry" />
        </mxCell>
        <mxCell id="EN3vZPTE7ob6RZtya6nI-181" style="edgeStyle=orthogonalEdgeStyle;rounded=0;orthogonalLoop=1;jettySize=auto;html=1;exitX=0.5;exitY=0;exitDx=0;exitDy=0;entryX=0.5;entryY=1;entryDx=0;entryDy=0;endArrow=none;startFill=0;" edge="1" parent="1" source="EN3vZPTE7ob6RZtya6nI-16" target="EN3vZPTE7ob6RZtya6nI-20">
          <mxGeometry relative="1" as="geometry">
            <Array as="points">
              <mxPoint x="630" y="-140" />
              <mxPoint x="300" y="-140" />
            </Array>
          </mxGeometry>
        </mxCell>
        <mxCell id="EN3vZPTE7ob6RZtya6nI-182" style="edgeStyle=orthogonalEdgeStyle;rounded=0;orthogonalLoop=1;jettySize=auto;html=1;exitX=0.5;exitY=0;exitDx=0;exitDy=0;entryX=1;entryY=1;entryDx=0;entryDy=0;endArrow=none;startFill=0;" edge="1" parent="1" source="EN3vZPTE7ob6RZtya6nI-16" target="EN3vZPTE7ob6RZtya6nI-19">
          <mxGeometry relative="1" as="geometry">
            <Array as="points">
              <mxPoint x="630" y="-160" />
              <mxPoint x="362" y="-160" />
            </Array>
          </mxGeometry>
        </mxCell>
        <mxCell id="EN3vZPTE7ob6RZtya6nI-184" style="edgeStyle=orthogonalEdgeStyle;rounded=0;orthogonalLoop=1;jettySize=auto;html=1;exitX=0.5;exitY=0;exitDx=0;exitDy=0;entryX=0.5;entryY=1;entryDx=0;entryDy=0;endArrow=none;startFill=0;" edge="1" parent="1" source="EN3vZPTE7ob6RZtya6nI-16" target="EN3vZPTE7ob6RZtya6nI-21">
          <mxGeometry relative="1" as="geometry">
            <Array as="points">
              <mxPoint x="630" y="-180" />
              <mxPoint x="380" y="-180" />
            </Array>
          </mxGeometry>
        </mxCell>
        <mxCell id="EN3vZPTE7ob6RZtya6nI-185" style="edgeStyle=orthogonalEdgeStyle;rounded=0;orthogonalLoop=1;jettySize=auto;html=1;exitX=0.5;exitY=0;exitDx=0;exitDy=0;entryX=0.5;entryY=1;entryDx=0;entryDy=0;endArrow=none;startFill=0;" edge="1" parent="1" source="EN3vZPTE7ob6RZtya6nI-16" target="EN3vZPTE7ob6RZtya6nI-18">
          <mxGeometry relative="1" as="geometry">
            <Array as="points">
              <mxPoint x="630" y="-200" />
              <mxPoint x="435" y="-200" />
            </Array>
          </mxGeometry>
        </mxCell>
        <mxCell id="EN3vZPTE7ob6RZtya6nI-187" style="edgeStyle=orthogonalEdgeStyle;rounded=0;orthogonalLoop=1;jettySize=auto;html=1;exitX=0.5;exitY=0;exitDx=0;exitDy=0;endArrow=none;startFill=0;" edge="1" parent="1" source="EN3vZPTE7ob6RZtya6nI-16" target="EN3vZPTE7ob6RZtya6nI-26">
          <mxGeometry relative="1" as="geometry">
            <Array as="points">
              <mxPoint x="630" y="-240" />
              <mxPoint x="580" y="-240" />
            </Array>
          </mxGeometry>
        </mxCell>
        <mxCell id="EN3vZPTE7ob6RZtya6nI-190" style="edgeStyle=orthogonalEdgeStyle;rounded=0;orthogonalLoop=1;jettySize=auto;html=1;exitX=0.5;exitY=0;exitDx=0;exitDy=0;entryX=0.5;entryY=1;entryDx=0;entryDy=0;endArrow=none;startFill=0;" edge="1" parent="1" source="EN3vZPTE7ob6RZtya6nI-16" target="EN3vZPTE7ob6RZtya6nI-17">
          <mxGeometry relative="1" as="geometry">
            <Array as="points">
              <mxPoint x="630" y="-220" />
              <mxPoint x="735" y="-220" />
            </Array>
          </mxGeometry>
        </mxCell>
        <mxCell id="EN3vZPTE7ob6RZtya6nI-191" style="edgeStyle=orthogonalEdgeStyle;rounded=0;orthogonalLoop=1;jettySize=auto;html=1;exitX=0.5;exitY=0;exitDx=0;exitDy=0;entryX=0.5;entryY=1;entryDx=0;entryDy=0;endArrow=none;startFill=0;" edge="1" parent="1" source="EN3vZPTE7ob6RZtya6nI-16" target="EN3vZPTE7ob6RZtya6nI-27">
          <mxGeometry relative="1" as="geometry">
            <Array as="points">
              <mxPoint x="630" y="-200" />
              <mxPoint x="780" y="-200" />
              <mxPoint x="780" y="-320" />
            </Array>
          </mxGeometry>
        </mxCell>
        <mxCell id="EN3vZPTE7ob6RZtya6nI-193" style="edgeStyle=orthogonalEdgeStyle;rounded=0;orthogonalLoop=1;jettySize=auto;html=1;exitX=0.5;exitY=0;exitDx=0;exitDy=0;endArrow=none;startFill=0;" edge="1" parent="1" source="EN3vZPTE7ob6RZtya6nI-16" target="EN3vZPTE7ob6RZtya6nI-28">
          <mxGeometry relative="1" as="geometry">
            <Array as="points">
              <mxPoint x="630" y="-180" />
              <mxPoint x="820" y="-180" />
            </Array>
          </mxGeometry>
        </mxCell>
        <mxCell id="EN3vZPTE7ob6RZtya6nI-196" style="edgeStyle=orthogonalEdgeStyle;rounded=0;orthogonalLoop=1;jettySize=auto;html=1;exitX=0.5;exitY=0;exitDx=0;exitDy=0;entryX=0.5;entryY=1;entryDx=0;entryDy=0;endArrow=none;startFill=0;" edge="1" parent="1" source="EN3vZPTE7ob6RZtya6nI-16" target="EN3vZPTE7ob6RZtya6nI-25">
          <mxGeometry relative="1" as="geometry">
            <Array as="points">
              <mxPoint x="630" y="-140" />
              <mxPoint x="945" y="-140" />
            </Array>
          </mxGeometry>
        </mxCell>
        <mxCell id="EN3vZPTE7ob6RZtya6nI-233" style="edgeStyle=orthogonalEdgeStyle;rounded=0;orthogonalLoop=1;jettySize=auto;html=1;exitX=0.323;exitY=-0.025;exitDx=0;exitDy=0;entryX=0.5;entryY=0;entryDx=0;entryDy=0;exitPerimeter=0;" edge="1" parent="1" source="EN3vZPTE7ob6RZtya6nI-252" target="EN3vZPTE7ob6RZtya6nI-120">
          <mxGeometry relative="1" as="geometry">
            <Array as="points">
              <mxPoint x="590" y="20" />
              <mxPoint x="100" y="20" />
            </Array>
          </mxGeometry>
        </mxCell>
        <mxCell id="EN3vZPTE7ob6RZtya6nI-236" style="edgeStyle=orthogonalEdgeStyle;rounded=0;orthogonalLoop=1;jettySize=auto;html=1;exitX=1;exitY=1;exitDx=0;exitDy=0;entryX=0.5;entryY=0;entryDx=0;entryDy=0;" edge="1" parent="1" source="EN3vZPTE7ob6RZtya6nI-16" target="EN3vZPTE7ob6RZtya6nI-140">
          <mxGeometry relative="1" as="geometry">
            <Array as="points">
              <mxPoint x="680" y="-77" />
              <mxPoint x="730" y="-77" />
              <mxPoint x="730" y="90" />
              <mxPoint x="790" y="90" />
            </Array>
          </mxGeometry>
        </mxCell>
        <mxCell id="EN3vZPTE7ob6RZtya6nI-237" style="edgeStyle=orthogonalEdgeStyle;rounded=0;orthogonalLoop=1;jettySize=auto;html=1;exitX=1;exitY=0.5;exitDx=0;exitDy=0;entryX=0;entryY=0.5;entryDx=0;entryDy=0;" edge="1" parent="1" source="EN3vZPTE7ob6RZtya6nI-16" target="EN3vZPTE7ob6RZtya6nI-112">
          <mxGeometry relative="1" as="geometry" />
        </mxCell>
        <mxCell id="EN3vZPTE7ob6RZtya6nI-238" style="edgeStyle=orthogonalEdgeStyle;rounded=0;orthogonalLoop=1;jettySize=auto;html=1;exitX=0;exitY=0.5;exitDx=0;exitDy=0;entryX=1;entryY=0.5;entryDx=0;entryDy=0;" edge="1" parent="1" source="EN3vZPTE7ob6RZtya6nI-16" target="EN3vZPTE7ob6RZtya6nI-14">
          <mxGeometry relative="1" as="geometry" />
        </mxCell>
        <mxCell id="EN3vZPTE7ob6RZtya6nI-264" style="edgeStyle=orthogonalEdgeStyle;rounded=0;orthogonalLoop=1;jettySize=auto;html=1;exitX=0.349;exitY=0.989;exitDx=0;exitDy=0;entryX=0.5;entryY=0;entryDx=0;entryDy=0;exitPerimeter=0;" edge="1" parent="1" source="EN3vZPTE7ob6RZtya6nI-16" target="EN3vZPTE7ob6RZtya6nI-263">
          <mxGeometry relative="1" as="geometry" />
        </mxCell>
        <mxCell id="EN3vZPTE7ob6RZtya6nI-16" value="usuario" style="rounded=0;whiteSpace=wrap;html=1;" vertex="1" parent="1">
          <mxGeometry x="580" y="-125" width="100" height="45" as="geometry" />
        </mxCell>
        <mxCell id="EN3vZPTE7ob6RZtya6nI-17" value="token" style="ellipse;whiteSpace=wrap;html=1;" vertex="1" parent="1">
          <mxGeometry x="695" y="-420" width="80" height="50" as="geometry" />
        </mxCell>
        <mxCell id="EN3vZPTE7ob6RZtya6nI-18" value="telefono" style="ellipse;whiteSpace=wrap;html=1;" vertex="1" parent="1">
          <mxGeometry x="395" y="-370" width="80" height="50" as="geometry" />
        </mxCell>
        <mxCell id="EN3vZPTE7ob6RZtya6nI-19" value="documento" style="ellipse;whiteSpace=wrap;html=1;" vertex="1" parent="1">
          <mxGeometry x="294" y="-280" width="80" height="50" as="geometry" />
        </mxCell>
        <mxCell id="EN3vZPTE7ob6RZtya6nI-20" value="&lt;u&gt;id_us&lt;/u&gt;" style="ellipse;whiteSpace=wrap;html=1;" vertex="1" parent="1">
          <mxGeometry x="260" y="-230" width="80" height="50" as="geometry" />
        </mxCell>
        <mxCell id="EN3vZPTE7ob6RZtya6nI-21" value="nombre" style="ellipse;whiteSpace=wrap;html=1;" vertex="1" parent="1">
          <mxGeometry x="340" y="-330" width="80" height="50" as="geometry" />
        </mxCell>
        <mxCell id="EN3vZPTE7ob6RZtya6nI-24" value="direccion" style="ellipse;whiteSpace=wrap;html=1;" vertex="1" parent="1">
          <mxGeometry x="460" y="-410" width="80" height="50" as="geometry" />
        </mxCell>
        <mxCell id="EN3vZPTE7ob6RZtya6nI-25" value="fecha_inactivacion" style="ellipse;whiteSpace=wrap;html=1;" vertex="1" parent="1">
          <mxGeometry x="890" y="-230" width="110" height="50" as="geometry" />
        </mxCell>
        <mxCell id="EN3vZPTE7ob6RZtya6nI-26" value="correo" style="ellipse;whiteSpace=wrap;html=1;" vertex="1" parent="1">
          <mxGeometry x="535" y="-450" width="80" height="50" as="geometry" />
        </mxCell>
        <mxCell id="EN3vZPTE7ob6RZtya6nI-27" value="contrasena" style="ellipse;whiteSpace=wrap;html=1;" vertex="1" parent="1">
          <mxGeometry x="747" y="-370" width="80" height="50" as="geometry" />
        </mxCell>
        <mxCell id="EN3vZPTE7ob6RZtya6nI-28" value="fecha_creacion" style="ellipse;whiteSpace=wrap;html=1;" vertex="1" parent="1">
          <mxGeometry x="810" y="-330" width="90" height="50" as="geometry" />
        </mxCell>
        <mxCell id="EN3vZPTE7ob6RZtya6nI-29" value="fecha_actualizacion" style="ellipse;whiteSpace=wrap;html=1;" vertex="1" parent="1">
          <mxGeometry x="840" y="-280" width="120" height="50" as="geometry" />
        </mxCell>
        <mxCell id="EN3vZPTE7ob6RZtya6nI-199" style="edgeStyle=orthogonalEdgeStyle;rounded=0;orthogonalLoop=1;jettySize=auto;html=1;exitX=0.5;exitY=1;exitDx=0;exitDy=0;entryX=1;entryY=0.5;entryDx=0;entryDy=0;endArrow=none;startFill=0;" edge="1" parent="1" source="EN3vZPTE7ob6RZtya6nI-45" target="EN3vZPTE7ob6RZtya6nI-46">
          <mxGeometry relative="1" as="geometry" />
        </mxCell>
        <mxCell id="EN3vZPTE7ob6RZtya6nI-200" style="edgeStyle=orthogonalEdgeStyle;rounded=0;orthogonalLoop=1;jettySize=auto;html=1;exitX=0.5;exitY=0;exitDx=0;exitDy=0;entryX=1;entryY=0.5;entryDx=0;entryDy=0;endArrow=none;startFill=0;" edge="1" parent="1" source="EN3vZPTE7ob6RZtya6nI-45" target="EN3vZPTE7ob6RZtya6nI-47">
          <mxGeometry relative="1" as="geometry" />
        </mxCell>
        <mxCell id="EN3vZPTE7ob6RZtya6nI-45" value="tipo_doc" style="rounded=0;whiteSpace=wrap;html=1;" vertex="1" parent="1">
          <mxGeometry x="-179" y="-2.5" width="100" height="45" as="geometry" />
        </mxCell>
        <mxCell id="EN3vZPTE7ob6RZtya6nI-46" value="nom_tipo" style="ellipse;whiteSpace=wrap;html=1;" vertex="1" parent="1">
          <mxGeometry x="-279" y="47.5" width="80" height="50" as="geometry" />
        </mxCell>
        <mxCell id="EN3vZPTE7ob6RZtya6nI-47" value="&lt;u&gt;id_tipo_doc&lt;/u&gt;" style="ellipse;whiteSpace=wrap;html=1;" vertex="1" parent="1">
          <mxGeometry x="-289" y="-77.5" width="80" height="50" as="geometry" />
        </mxCell>
        <mxCell id="EN3vZPTE7ob6RZtya6nI-223" style="edgeStyle=orthogonalEdgeStyle;rounded=0;orthogonalLoop=1;jettySize=auto;html=1;exitX=1;exitY=0.5;exitDx=0;exitDy=0;endArrow=none;startFill=0;" edge="1" parent="1" source="EN3vZPTE7ob6RZtya6nI-109" target="EN3vZPTE7ob6RZtya6nI-111">
          <mxGeometry relative="1" as="geometry" />
        </mxCell>
        <mxCell id="EN3vZPTE7ob6RZtya6nI-224" style="edgeStyle=orthogonalEdgeStyle;rounded=0;orthogonalLoop=1;jettySize=auto;html=1;exitX=1;exitY=0.5;exitDx=0;exitDy=0;entryX=0.5;entryY=0;entryDx=0;entryDy=0;endArrow=none;startFill=0;" edge="1" parent="1" source="EN3vZPTE7ob6RZtya6nI-109" target="EN3vZPTE7ob6RZtya6nI-110">
          <mxGeometry relative="1" as="geometry" />
        </mxCell>
        <mxCell id="EN3vZPTE7ob6RZtya6nI-109" value="Rol_us" style="rounded=0;whiteSpace=wrap;html=1;" vertex="1" parent="1">
          <mxGeometry x="1090" y="20" width="100" height="45" as="geometry" />
        </mxCell>
        <mxCell id="EN3vZPTE7ob6RZtya6nI-110" value="nom_TipoUs" style="ellipse;whiteSpace=wrap;html=1;" vertex="1" parent="1">
          <mxGeometry x="1180" y="78" width="80" height="50" as="geometry" />
        </mxCell>
        <mxCell id="EN3vZPTE7ob6RZtya6nI-111" value="&lt;u&gt;id_rolUs&lt;/u&gt;" style="ellipse;whiteSpace=wrap;html=1;" vertex="1" parent="1">
          <mxGeometry x="1180" y="-40" width="80" height="50" as="geometry" />
        </mxCell>
        <mxCell id="EN3vZPTE7ob6RZtya6nI-117" style="edgeStyle=orthogonalEdgeStyle;rounded=0;orthogonalLoop=1;jettySize=auto;html=1;exitX=1;exitY=0.5;exitDx=0;exitDy=0;entryX=0;entryY=0.5;entryDx=0;entryDy=0;" edge="1" parent="1" source="EN3vZPTE7ob6RZtya6nI-112" target="EN3vZPTE7ob6RZtya6nI-109">
          <mxGeometry relative="1" as="geometry" />
        </mxCell>
        <mxCell id="EN3vZPTE7ob6RZtya6nI-112" value="tiene" style="rhombus;whiteSpace=wrap;html=1;" vertex="1" parent="1">
          <mxGeometry x="870" y="-80" width="120" height="80" as="geometry" />
        </mxCell>
        <mxCell id="EN3vZPTE7ob6RZtya6nI-217" style="edgeStyle=orthogonalEdgeStyle;rounded=0;orthogonalLoop=1;jettySize=auto;html=1;exitX=0.5;exitY=1;exitDx=0;exitDy=0;entryX=0.5;entryY=0;entryDx=0;entryDy=0;endArrow=none;startFill=0;" edge="1" parent="1" source="EN3vZPTE7ob6RZtya6nI-119" target="EN3vZPTE7ob6RZtya6nI-121">
          <mxGeometry relative="1" as="geometry" />
        </mxCell>
        <mxCell id="EN3vZPTE7ob6RZtya6nI-218" style="edgeStyle=orthogonalEdgeStyle;rounded=0;orthogonalLoop=1;jettySize=auto;html=1;exitX=1;exitY=0.5;exitDx=0;exitDy=0;entryX=0;entryY=0.5;entryDx=0;entryDy=0;endArrow=none;startFill=0;" edge="1" parent="1" source="EN3vZPTE7ob6RZtya6nI-119" target="EN3vZPTE7ob6RZtya6nI-122">
          <mxGeometry relative="1" as="geometry" />
        </mxCell>
        <mxCell id="EN3vZPTE7ob6RZtya6nI-234" style="edgeStyle=orthogonalEdgeStyle;rounded=0;orthogonalLoop=1;jettySize=auto;html=1;exitX=0;exitY=0.5;exitDx=0;exitDy=0;entryX=1;entryY=0.5;entryDx=0;entryDy=0;" edge="1" parent="1" source="EN3vZPTE7ob6RZtya6nI-119" target="EN3vZPTE7ob6RZtya6nI-127">
          <mxGeometry relative="1" as="geometry" />
        </mxCell>
        <mxCell id="EN3vZPTE7ob6RZtya6nI-119" value="ciudad" style="rounded=0;whiteSpace=wrap;html=1;" vertex="1" parent="1">
          <mxGeometry x="-49" y="197.5" width="100" height="45" as="geometry" />
        </mxCell>
        <mxCell id="EN3vZPTE7ob6RZtya6nI-124" style="edgeStyle=orthogonalEdgeStyle;rounded=0;orthogonalLoop=1;jettySize=auto;html=1;exitX=0;exitY=0.5;exitDx=0;exitDy=0;entryX=0.5;entryY=0;entryDx=0;entryDy=0;" edge="1" parent="1" source="EN3vZPTE7ob6RZtya6nI-120" target="EN3vZPTE7ob6RZtya6nI-119">
          <mxGeometry relative="1" as="geometry" />
        </mxCell>
        <mxCell id="EN3vZPTE7ob6RZtya6nI-120" value="pertenece" style="rhombus;whiteSpace=wrap;html=1;" vertex="1" parent="1">
          <mxGeometry x="40" y="35" width="120" height="80" as="geometry" />
        </mxCell>
        <mxCell id="EN3vZPTE7ob6RZtya6nI-121" value="nom_ciudad" style="ellipse;whiteSpace=wrap;html=1;" vertex="1" parent="1">
          <mxGeometry x="-39" y="272.5" width="80" height="50" as="geometry" />
        </mxCell>
        <mxCell id="EN3vZPTE7ob6RZtya6nI-122" value="&lt;u&gt;id_ciudad&lt;/u&gt;" style="ellipse;whiteSpace=wrap;html=1;" vertex="1" parent="1">
          <mxGeometry x="76" y="195" width="80" height="50" as="geometry" />
        </mxCell>
        <mxCell id="EN3vZPTE7ob6RZtya6nI-125" value="departamento" style="rounded=0;whiteSpace=wrap;html=1;" vertex="1" parent="1">
          <mxGeometry x="-379" y="367.5" width="100" height="45" as="geometry" />
        </mxCell>
        <mxCell id="EN3vZPTE7ob6RZtya6nI-126" style="edgeStyle=orthogonalEdgeStyle;rounded=0;orthogonalLoop=1;jettySize=auto;html=1;exitX=0;exitY=0.5;exitDx=0;exitDy=0;entryX=0.5;entryY=0;entryDx=0;entryDy=0;" edge="1" source="EN3vZPTE7ob6RZtya6nI-127" target="EN3vZPTE7ob6RZtya6nI-125" parent="1">
          <mxGeometry relative="1" as="geometry" />
        </mxCell>
        <mxCell id="EN3vZPTE7ob6RZtya6nI-127" value="pertenece" style="rhombus;whiteSpace=wrap;html=1;" vertex="1" parent="1">
          <mxGeometry x="-229" y="257.5" width="120" height="80" as="geometry" />
        </mxCell>
        <mxCell id="EN3vZPTE7ob6RZtya6nI-128" value="nom_departamento" style="ellipse;whiteSpace=wrap;html=1;" vertex="1" parent="1">
          <mxGeometry x="-319" y="437.5" width="120" height="50" as="geometry" />
        </mxCell>
        <mxCell id="EN3vZPTE7ob6RZtya6nI-129" value="&lt;u&gt;id_departamento&lt;/u&gt;" style="ellipse;whiteSpace=wrap;html=1;" vertex="1" parent="1">
          <mxGeometry x="-459" y="437.5" width="100" height="50" as="geometry" />
        </mxCell>
        <mxCell id="EN3vZPTE7ob6RZtya6nI-165" style="edgeStyle=orthogonalEdgeStyle;rounded=0;orthogonalLoop=1;jettySize=auto;html=1;exitX=0.5;exitY=1;exitDx=0;exitDy=0;entryX=0.5;entryY=0;entryDx=0;entryDy=0;" edge="1" parent="1" source="EN3vZPTE7ob6RZtya6nI-132" target="EN3vZPTE7ob6RZtya6nI-147">
          <mxGeometry relative="1" as="geometry">
            <Array as="points">
              <mxPoint x="930" y="440" />
              <mxPoint x="611" y="440" />
            </Array>
          </mxGeometry>
        </mxCell>
        <mxCell id="EN3vZPTE7ob6RZtya6nI-222" style="edgeStyle=orthogonalEdgeStyle;rounded=0;orthogonalLoop=1;jettySize=auto;html=1;exitX=1;exitY=0.5;exitDx=0;exitDy=0;endArrow=none;startFill=0;" edge="1" parent="1" source="EN3vZPTE7ob6RZtya6nI-132" target="EN3vZPTE7ob6RZtya6nI-138">
          <mxGeometry relative="1" as="geometry">
            <Array as="points">
              <mxPoint x="980" y="290" />
              <mxPoint x="1100" y="290" />
            </Array>
          </mxGeometry>
        </mxCell>
        <mxCell id="EN3vZPTE7ob6RZtya6nI-225" style="edgeStyle=orthogonalEdgeStyle;rounded=0;orthogonalLoop=1;jettySize=auto;html=1;exitX=0.75;exitY=1;exitDx=0;exitDy=0;entryX=0;entryY=0;entryDx=0;entryDy=0;endArrow=none;startFill=0;" edge="1" parent="1" source="EN3vZPTE7ob6RZtya6nI-132" target="EN3vZPTE7ob6RZtya6nI-139">
          <mxGeometry relative="1" as="geometry" />
        </mxCell>
        <mxCell id="EN3vZPTE7ob6RZtya6nI-230" style="edgeStyle=orthogonalEdgeStyle;rounded=0;orthogonalLoop=1;jettySize=auto;html=1;exitX=1;exitY=0;exitDx=0;exitDy=0;entryX=0.5;entryY=1;entryDx=0;entryDy=0;endArrow=none;startFill=0;" edge="1" parent="1" source="EN3vZPTE7ob6RZtya6nI-132" target="EN3vZPTE7ob6RZtya6nI-133">
          <mxGeometry relative="1" as="geometry" />
        </mxCell>
        <mxCell id="EN3vZPTE7ob6RZtya6nI-270" style="edgeStyle=orthogonalEdgeStyle;rounded=0;orthogonalLoop=1;jettySize=auto;html=1;exitX=0;exitY=0.75;exitDx=0;exitDy=0;entryX=1;entryY=0.5;entryDx=0;entryDy=0;" edge="1" parent="1" source="EN3vZPTE7ob6RZtya6nI-132" target="EN3vZPTE7ob6RZtya6nI-268">
          <mxGeometry relative="1" as="geometry" />
        </mxCell>
        <mxCell id="EN3vZPTE7ob6RZtya6nI-132" value="curso" style="rounded=0;whiteSpace=wrap;html=1;" vertex="1" parent="1">
          <mxGeometry x="880" y="255" width="100" height="45" as="geometry" />
        </mxCell>
        <mxCell id="EN3vZPTE7ob6RZtya6nI-133" value="nom_curso" style="ellipse;whiteSpace=wrap;html=1;" vertex="1" parent="1">
          <mxGeometry x="960" y="143" width="80" height="50" as="geometry" />
        </mxCell>
        <mxCell id="EN3vZPTE7ob6RZtya6nI-134" value="&lt;u&gt;id_curso&lt;/u&gt;" style="ellipse;whiteSpace=wrap;html=1;" vertex="1" parent="1">
          <mxGeometry x="880" y="167.5" width="80" height="50" as="geometry" />
        </mxCell>
        <mxCell id="EN3vZPTE7ob6RZtya6nI-135" value="des_curso" style="ellipse;whiteSpace=wrap;html=1;" vertex="1" parent="1">
          <mxGeometry x="1050" y="152.5" width="80" height="50" as="geometry" />
        </mxCell>
        <mxCell id="EN3vZPTE7ob6RZtya6nI-136" value="duracion" style="ellipse;whiteSpace=wrap;html=1;" vertex="1" parent="1">
          <mxGeometry x="1110" y="193" width="80" height="50" as="geometry" />
        </mxCell>
        <mxCell id="EN3vZPTE7ob6RZtya6nI-137" value="estado" style="ellipse;whiteSpace=wrap;html=1;" vertex="1" parent="1">
          <mxGeometry x="1120" y="255" width="80" height="50" as="geometry" />
        </mxCell>
        <mxCell id="EN3vZPTE7ob6RZtya6nI-138" value="feha_inicio" style="ellipse;whiteSpace=wrap;html=1;" vertex="1" parent="1">
          <mxGeometry x="1060" y="310" width="80" height="50" as="geometry" />
        </mxCell>
        <mxCell id="EN3vZPTE7ob6RZtya6nI-139" value="fecha_fin" style="ellipse;whiteSpace=wrap;html=1;" vertex="1" parent="1">
          <mxGeometry x="960" y="320" width="80" height="50" as="geometry" />
        </mxCell>
        <mxCell id="EN3vZPTE7ob6RZtya6nI-167" style="edgeStyle=orthogonalEdgeStyle;rounded=0;orthogonalLoop=1;jettySize=auto;html=1;exitX=0.5;exitY=1;exitDx=0;exitDy=0;" edge="1" parent="1" source="EN3vZPTE7ob6RZtya6nI-140">
          <mxGeometry relative="1" as="geometry">
            <mxPoint x="880" y="260" as="targetPoint" />
            <Array as="points">
              <mxPoint x="790" y="260" />
              <mxPoint x="880" y="260" />
            </Array>
          </mxGeometry>
        </mxCell>
        <mxCell id="EN3vZPTE7ob6RZtya6nI-140" value="realiza" style="rhombus;whiteSpace=wrap;html=1;" vertex="1" parent="1">
          <mxGeometry x="730" y="137.5" width="120" height="80" as="geometry" />
        </mxCell>
        <mxCell id="EN3vZPTE7ob6RZtya6nI-210" style="edgeStyle=orthogonalEdgeStyle;rounded=0;orthogonalLoop=1;jettySize=auto;html=1;exitX=1;exitY=0.5;exitDx=0;exitDy=0;entryX=0;entryY=0.5;entryDx=0;entryDy=0;endArrow=none;startFill=0;" edge="1" parent="1" source="EN3vZPTE7ob6RZtya6nI-143" target="EN3vZPTE7ob6RZtya6nI-146">
          <mxGeometry relative="1" as="geometry" />
        </mxCell>
        <mxCell id="EN3vZPTE7ob6RZtya6nI-215" style="edgeStyle=orthogonalEdgeStyle;rounded=0;orthogonalLoop=1;jettySize=auto;html=1;exitX=1;exitY=0.5;exitDx=0;exitDy=0;entryX=0;entryY=0.5;entryDx=0;entryDy=0;endArrow=none;startFill=0;" edge="1" parent="1" source="EN3vZPTE7ob6RZtya6nI-143" target="EN3vZPTE7ob6RZtya6nI-145">
          <mxGeometry relative="1" as="geometry" />
        </mxCell>
        <mxCell id="EN3vZPTE7ob6RZtya6nI-216" style="edgeStyle=orthogonalEdgeStyle;rounded=0;orthogonalLoop=1;jettySize=auto;html=1;exitX=1;exitY=0.5;exitDx=0;exitDy=0;entryX=0;entryY=0.5;entryDx=0;entryDy=0;endArrow=none;startFill=0;" edge="1" parent="1" source="EN3vZPTE7ob6RZtya6nI-143" target="EN3vZPTE7ob6RZtya6nI-144">
          <mxGeometry relative="1" as="geometry" />
        </mxCell>
        <mxCell id="EN3vZPTE7ob6RZtya6nI-235" style="edgeStyle=orthogonalEdgeStyle;rounded=0;orthogonalLoop=1;jettySize=auto;html=1;exitX=0.5;exitY=1;exitDx=0;exitDy=0;entryX=1;entryY=0.5;entryDx=0;entryDy=0;" edge="1" parent="1" source="EN3vZPTE7ob6RZtya6nI-143" target="EN3vZPTE7ob6RZtya6nI-155">
          <mxGeometry relative="1" as="geometry" />
        </mxCell>
        <mxCell id="EN3vZPTE7ob6RZtya6nI-143" value="modulos" style="rounded=0;whiteSpace=wrap;html=1;" vertex="1" parent="1">
          <mxGeometry x="561" y="650" width="100" height="45" as="geometry" />
        </mxCell>
        <mxCell id="EN3vZPTE7ob6RZtya6nI-144" value="des_mod" style="ellipse;whiteSpace=wrap;html=1;" vertex="1" parent="1">
          <mxGeometry x="730" y="710" width="80" height="50" as="geometry" />
        </mxCell>
        <mxCell id="EN3vZPTE7ob6RZtya6nI-145" value="&lt;u&gt;id_mod&lt;/u&gt;" style="ellipse;whiteSpace=wrap;html=1;" vertex="1" parent="1">
          <mxGeometry x="730" y="580" width="80" height="50" as="geometry" />
        </mxCell>
        <mxCell id="EN3vZPTE7ob6RZtya6nI-146" value="nom_mod" style="ellipse;whiteSpace=wrap;html=1;" vertex="1" parent="1">
          <mxGeometry x="730" y="647.5" width="80" height="50" as="geometry" />
        </mxCell>
        <mxCell id="EN3vZPTE7ob6RZtya6nI-166" style="edgeStyle=orthogonalEdgeStyle;rounded=0;orthogonalLoop=1;jettySize=auto;html=1;exitX=0.5;exitY=1;exitDx=0;exitDy=0;entryX=0.5;entryY=0;entryDx=0;entryDy=0;" edge="1" parent="1" source="EN3vZPTE7ob6RZtya6nI-147" target="EN3vZPTE7ob6RZtya6nI-143">
          <mxGeometry relative="1" as="geometry">
            <mxPoint x="650" y="560" as="sourcePoint" />
            <Array as="points">
              <mxPoint x="611" y="650" />
            </Array>
          </mxGeometry>
        </mxCell>
        <mxCell id="EN3vZPTE7ob6RZtya6nI-147" value="incluye" style="rhombus;whiteSpace=wrap;html=1;" vertex="1" parent="1">
          <mxGeometry x="551" y="480" width="120" height="80" as="geometry" />
        </mxCell>
        <mxCell id="EN3vZPTE7ob6RZtya6nI-205" style="edgeStyle=orthogonalEdgeStyle;rounded=0;orthogonalLoop=1;jettySize=auto;html=1;exitX=0.5;exitY=1;exitDx=0;exitDy=0;entryX=1;entryY=0.5;entryDx=0;entryDy=0;endArrow=none;startFill=0;" edge="1" parent="1" source="EN3vZPTE7ob6RZtya6nI-151" target="EN3vZPTE7ob6RZtya6nI-154">
          <mxGeometry relative="1" as="geometry" />
        </mxCell>
        <mxCell id="EN3vZPTE7ob6RZtya6nI-206" style="edgeStyle=orthogonalEdgeStyle;rounded=0;orthogonalLoop=1;jettySize=auto;html=1;exitX=0.5;exitY=0;exitDx=0;exitDy=0;entryX=1;entryY=0.5;entryDx=0;entryDy=0;endArrow=none;startFill=0;" edge="1" parent="1" source="EN3vZPTE7ob6RZtya6nI-151" target="EN3vZPTE7ob6RZtya6nI-153">
          <mxGeometry relative="1" as="geometry" />
        </mxCell>
        <mxCell id="EN3vZPTE7ob6RZtya6nI-208" style="edgeStyle=orthogonalEdgeStyle;rounded=0;orthogonalLoop=1;jettySize=auto;html=1;exitX=0;exitY=0.5;exitDx=0;exitDy=0;endArrow=none;startFill=0;" edge="1" parent="1" source="EN3vZPTE7ob6RZtya6nI-151" target="EN3vZPTE7ob6RZtya6nI-152">
          <mxGeometry relative="1" as="geometry" />
        </mxCell>
        <mxCell id="EN3vZPTE7ob6RZtya6nI-151" value="material_apoyo" style="rounded=0;whiteSpace=wrap;html=1;" vertex="1" parent="1">
          <mxGeometry x="250" y="777.5" width="100" height="45" as="geometry" />
        </mxCell>
        <mxCell id="EN3vZPTE7ob6RZtya6nI-152" value="nom_act" style="ellipse;whiteSpace=wrap;html=1;" vertex="1" parent="1">
          <mxGeometry x="115" y="775" width="80" height="50" as="geometry" />
        </mxCell>
        <mxCell id="EN3vZPTE7ob6RZtya6nI-153" value="&lt;u&gt;id_mat_apoyo&lt;/u&gt;" style="ellipse;whiteSpace=wrap;html=1;" vertex="1" parent="1">
          <mxGeometry x="165" y="695" width="110" height="50" as="geometry" />
        </mxCell>
        <mxCell id="EN3vZPTE7ob6RZtya6nI-154" value="ubicacion_mat" style="ellipse;whiteSpace=wrap;html=1;" vertex="1" parent="1">
          <mxGeometry x="175" y="870" width="100" height="50" as="geometry" />
        </mxCell>
        <mxCell id="EN3vZPTE7ob6RZtya6nI-157" style="edgeStyle=orthogonalEdgeStyle;rounded=0;orthogonalLoop=1;jettySize=auto;html=1;exitX=0;exitY=0.5;exitDx=0;exitDy=0;entryX=1;entryY=0.5;entryDx=0;entryDy=0;" edge="1" parent="1" source="EN3vZPTE7ob6RZtya6nI-155" target="EN3vZPTE7ob6RZtya6nI-151">
          <mxGeometry relative="1" as="geometry" />
        </mxCell>
        <mxCell id="EN3vZPTE7ob6RZtya6nI-155" value="incluye" style="rhombus;whiteSpace=wrap;html=1;" vertex="1" parent="1">
          <mxGeometry x="425" y="760" width="120" height="80" as="geometry" />
        </mxCell>
        <mxCell id="EN3vZPTE7ob6RZtya6nI-186" style="edgeStyle=orthogonalEdgeStyle;rounded=0;orthogonalLoop=1;jettySize=auto;html=1;exitX=0.5;exitY=0;exitDx=0;exitDy=0;entryX=0.42;entryY=1.062;entryDx=0;entryDy=0;entryPerimeter=0;endArrow=none;startFill=0;" edge="1" parent="1" source="EN3vZPTE7ob6RZtya6nI-16" target="EN3vZPTE7ob6RZtya6nI-24">
          <mxGeometry relative="1" as="geometry">
            <Array as="points">
              <mxPoint x="630" y="-220" />
              <mxPoint x="494" y="-220" />
            </Array>
          </mxGeometry>
        </mxCell>
        <mxCell id="EN3vZPTE7ob6RZtya6nI-188" style="edgeStyle=orthogonalEdgeStyle;rounded=0;orthogonalLoop=1;jettySize=auto;html=1;exitX=0.5;exitY=0;exitDx=0;exitDy=0;entryX=0.729;entryY=1.014;entryDx=0;entryDy=0;entryPerimeter=0;endArrow=none;startFill=0;" edge="1" parent="1" source="EN3vZPTE7ob6RZtya6nI-16" target="EN3vZPTE7ob6RZtya6nI-15">
          <mxGeometry relative="1" as="geometry">
            <Array as="points">
              <mxPoint x="630" y="-240" />
              <mxPoint x="678" y="-240" />
            </Array>
          </mxGeometry>
        </mxCell>
        <mxCell id="EN3vZPTE7ob6RZtya6nI-195" style="edgeStyle=orthogonalEdgeStyle;rounded=0;orthogonalLoop=1;jettySize=auto;html=1;exitX=0.5;exitY=0;exitDx=0;exitDy=0;entryX=0.216;entryY=0.919;entryDx=0;entryDy=0;entryPerimeter=0;endArrow=none;startFill=0;" edge="1" parent="1" source="EN3vZPTE7ob6RZtya6nI-16" target="EN3vZPTE7ob6RZtya6nI-29">
          <mxGeometry relative="1" as="geometry">
            <Array as="points">
              <mxPoint x="630" y="-160" />
              <mxPoint x="866" y="-160" />
            </Array>
          </mxGeometry>
        </mxCell>
        <mxCell id="EN3vZPTE7ob6RZtya6nI-201" style="edgeStyle=orthogonalEdgeStyle;rounded=0;orthogonalLoop=1;jettySize=auto;html=1;exitX=0;exitY=0.5;exitDx=0;exitDy=0;entryX=0.374;entryY=-0.014;entryDx=0;entryDy=0;entryPerimeter=0;endArrow=none;startFill=0;" edge="1" parent="1" source="EN3vZPTE7ob6RZtya6nI-125" target="EN3vZPTE7ob6RZtya6nI-129">
          <mxGeometry relative="1" as="geometry" />
        </mxCell>
        <mxCell id="EN3vZPTE7ob6RZtya6nI-204" style="edgeStyle=orthogonalEdgeStyle;rounded=0;orthogonalLoop=1;jettySize=auto;html=1;exitX=1;exitY=0.5;exitDx=0;exitDy=0;entryX=0.669;entryY=0.081;entryDx=0;entryDy=0;entryPerimeter=0;endArrow=none;startFill=0;" edge="1" parent="1" source="EN3vZPTE7ob6RZtya6nI-125" target="EN3vZPTE7ob6RZtya6nI-128">
          <mxGeometry relative="1" as="geometry" />
        </mxCell>
        <mxCell id="EN3vZPTE7ob6RZtya6nI-227" style="edgeStyle=orthogonalEdgeStyle;rounded=0;orthogonalLoop=1;jettySize=auto;html=1;exitX=1;exitY=0.25;exitDx=0;exitDy=0;entryX=0.013;entryY=0.675;entryDx=0;entryDy=0;entryPerimeter=0;endArrow=none;startFill=0;" edge="1" parent="1" source="EN3vZPTE7ob6RZtya6nI-132" target="EN3vZPTE7ob6RZtya6nI-136">
          <mxGeometry relative="1" as="geometry">
            <Array as="points">
              <mxPoint x="1045" y="266" />
              <mxPoint x="1045" y="240" />
              <mxPoint x="1111" y="240" />
            </Array>
          </mxGeometry>
        </mxCell>
        <mxCell id="EN3vZPTE7ob6RZtya6nI-228" style="edgeStyle=orthogonalEdgeStyle;rounded=0;orthogonalLoop=1;jettySize=auto;html=1;exitX=1;exitY=0;exitDx=0;exitDy=0;entryX=0.448;entryY=0.995;entryDx=0;entryDy=0;entryPerimeter=0;endArrow=none;startFill=0;" edge="1" parent="1" source="EN3vZPTE7ob6RZtya6nI-132" target="EN3vZPTE7ob6RZtya6nI-135">
          <mxGeometry relative="1" as="geometry">
            <Array as="points">
              <mxPoint x="1030" y="255" />
              <mxPoint x="1030" y="220" />
              <mxPoint x="1086" y="220" />
            </Array>
          </mxGeometry>
        </mxCell>
        <mxCell id="EN3vZPTE7ob6RZtya6nI-229" style="edgeStyle=orthogonalEdgeStyle;rounded=0;orthogonalLoop=1;jettySize=auto;html=1;exitX=1;exitY=0.5;exitDx=0;exitDy=0;entryX=0;entryY=0.415;entryDx=0;entryDy=0;entryPerimeter=0;endArrow=none;startFill=0;" edge="1" parent="1" source="EN3vZPTE7ob6RZtya6nI-132" target="EN3vZPTE7ob6RZtya6nI-137">
          <mxGeometry relative="1" as="geometry">
            <Array as="points">
              <mxPoint x="1050" y="278" />
              <mxPoint x="1120" y="278" />
            </Array>
          </mxGeometry>
        </mxCell>
        <mxCell id="EN3vZPTE7ob6RZtya6nI-231" style="edgeStyle=orthogonalEdgeStyle;rounded=0;orthogonalLoop=1;jettySize=auto;html=1;exitX=0.5;exitY=0;exitDx=0;exitDy=0;entryX=0.621;entryY=0.965;entryDx=0;entryDy=0;entryPerimeter=0;endArrow=none;startFill=0;" edge="1" parent="1" source="EN3vZPTE7ob6RZtya6nI-132" target="EN3vZPTE7ob6RZtya6nI-134">
          <mxGeometry relative="1" as="geometry" />
        </mxCell>
        <mxCell id="EN3vZPTE7ob6RZtya6nI-239" value="N" style="text;html=1;align=center;verticalAlign=middle;resizable=0;points=[];autosize=1;strokeColor=none;fillColor=none;" vertex="1" parent="1">
          <mxGeometry x="680" y="-125" width="30" height="30" as="geometry" />
        </mxCell>
        <mxCell id="EN3vZPTE7ob6RZtya6nI-240" value="M" style="text;html=1;align=center;verticalAlign=middle;resizable=0;points=[];autosize=1;strokeColor=none;fillColor=none;" vertex="1" parent="1">
          <mxGeometry x="1050" y="20" width="30" height="30" as="geometry" />
        </mxCell>
        <mxCell id="EN3vZPTE7ob6RZtya6nI-241" value="1" style="text;html=1;align=center;verticalAlign=middle;resizable=0;points=[];autosize=1;strokeColor=none;fillColor=none;" vertex="1" parent="1">
          <mxGeometry x="-69" y="-12.5" width="30" height="30" as="geometry" />
        </mxCell>
        <mxCell id="EN3vZPTE7ob6RZtya6nI-242" value="M" style="text;html=1;align=center;verticalAlign=middle;resizable=0;points=[];autosize=1;strokeColor=none;fillColor=none;" vertex="1" parent="1">
          <mxGeometry x="550" y="-125" width="30" height="30" as="geometry" />
        </mxCell>
        <mxCell id="EN3vZPTE7ob6RZtya6nI-245" value="N" style="text;html=1;align=center;verticalAlign=middle;resizable=0;points=[];autosize=1;strokeColor=none;fillColor=none;" vertex="1" parent="1">
          <mxGeometry x="670" y="-85" width="30" height="30" as="geometry" />
        </mxCell>
        <mxCell id="EN3vZPTE7ob6RZtya6nI-246" value="M" style="text;html=1;align=center;verticalAlign=middle;resizable=0;points=[];autosize=1;strokeColor=none;fillColor=none;" vertex="1" parent="1">
          <mxGeometry x="850" y="233" width="30" height="30" as="geometry" />
        </mxCell>
        <mxCell id="EN3vZPTE7ob6RZtya6nI-248" value="N" style="text;html=1;align=center;verticalAlign=middle;resizable=0;points=[];autosize=1;strokeColor=none;fillColor=none;" vertex="1" parent="1">
          <mxGeometry x="905" y="298" width="30" height="30" as="geometry" />
        </mxCell>
        <mxCell id="EN3vZPTE7ob6RZtya6nI-249" value="M" style="text;html=1;align=center;verticalAlign=middle;resizable=0;points=[];autosize=1;strokeColor=none;fillColor=none;" vertex="1" parent="1">
          <mxGeometry x="610" y="620" width="30" height="30" as="geometry" />
        </mxCell>
        <mxCell id="EN3vZPTE7ob6RZtya6nI-250" value="N" style="text;html=1;align=center;verticalAlign=middle;resizable=0;points=[];autosize=1;strokeColor=none;fillColor=none;" vertex="1" parent="1">
          <mxGeometry x="610" y="695" width="30" height="30" as="geometry" />
        </mxCell>
        <mxCell id="EN3vZPTE7ob6RZtya6nI-251" value="M" style="text;html=1;align=center;verticalAlign=middle;resizable=0;points=[];autosize=1;strokeColor=none;fillColor=none;" vertex="1" parent="1">
          <mxGeometry x="354" y="775" width="30" height="30" as="geometry" />
        </mxCell>
        <mxCell id="EN3vZPTE7ob6RZtya6nI-252" value="1" style="text;html=1;align=center;verticalAlign=middle;resizable=0;points=[];autosize=1;strokeColor=none;fillColor=none;" vertex="1" parent="1">
          <mxGeometry x="565" y="-85" width="30" height="30" as="geometry" />
        </mxCell>
        <mxCell id="EN3vZPTE7ob6RZtya6nI-253" value="M" style="text;html=1;align=center;verticalAlign=middle;resizable=0;points=[];autosize=1;strokeColor=none;fillColor=none;" vertex="1" parent="1">
          <mxGeometry x="-4" y="165.5" width="30" height="30" as="geometry" />
        </mxCell>
        <mxCell id="EN3vZPTE7ob6RZtya6nI-254" value="1" style="text;html=1;align=center;verticalAlign=middle;resizable=0;points=[];autosize=1;strokeColor=none;fillColor=none;" vertex="1" parent="1">
          <mxGeometry x="-79" y="197.5" width="30" height="30" as="geometry" />
        </mxCell>
        <mxCell id="EN3vZPTE7ob6RZtya6nI-255" value="M" style="text;html=1;align=center;verticalAlign=middle;resizable=0;points=[];autosize=1;strokeColor=none;fillColor=none;" vertex="1" parent="1">
          <mxGeometry x="-359" y="337.5" width="30" height="30" as="geometry" />
        </mxCell>
        <mxCell id="EN3vZPTE7ob6RZtya6nI-260" value="" style="edgeStyle=orthogonalEdgeStyle;rounded=0;orthogonalLoop=1;jettySize=auto;html=1;" edge="1" parent="1" source="EN3vZPTE7ob6RZtya6nI-256" target="EN3vZPTE7ob6RZtya6nI-259">
          <mxGeometry relative="1" as="geometry" />
        </mxCell>
        <mxCell id="EN3vZPTE7ob6RZtya6nI-261" style="edgeStyle=orthogonalEdgeStyle;rounded=0;orthogonalLoop=1;jettySize=auto;html=1;exitX=0;exitY=0.5;exitDx=0;exitDy=0;entryX=1;entryY=0.5;entryDx=0;entryDy=0;" edge="1" parent="1" source="EN3vZPTE7ob6RZtya6nI-256" target="EN3vZPTE7ob6RZtya6nI-257">
          <mxGeometry relative="1" as="geometry" />
        </mxCell>
        <mxCell id="EN3vZPTE7ob6RZtya6nI-262" style="edgeStyle=orthogonalEdgeStyle;rounded=0;orthogonalLoop=1;jettySize=auto;html=1;exitX=0;exitY=0.5;exitDx=0;exitDy=0;entryX=1;entryY=0.5;entryDx=0;entryDy=0;" edge="1" parent="1" source="EN3vZPTE7ob6RZtya6nI-256" target="EN3vZPTE7ob6RZtya6nI-258">
          <mxGeometry relative="1" as="geometry" />
        </mxCell>
        <mxCell id="EN3vZPTE7ob6RZtya6nI-256" value="historial" style="rounded=0;whiteSpace=wrap;html=1;" vertex="1" parent="1">
          <mxGeometry x="330" y="183" width="100" height="45" as="geometry" />
        </mxCell>
        <mxCell id="EN3vZPTE7ob6RZtya6nI-257" value="&lt;u&gt;id_historial&lt;/u&gt;" style="ellipse;whiteSpace=wrap;html=1;" vertex="1" parent="1">
          <mxGeometry x="210" y="120" width="80" height="50" as="geometry" />
        </mxCell>
        <mxCell id="EN3vZPTE7ob6RZtya6nI-258" value="tipo_gestion" style="ellipse;whiteSpace=wrap;html=1;" vertex="1" parent="1">
          <mxGeometry x="210" y="240" width="80" height="50" as="geometry" />
        </mxCell>
        <mxCell id="EN3vZPTE7ob6RZtya6nI-259" value="fecha_gestion" style="ellipse;whiteSpace=wrap;html=1;" vertex="1" parent="1">
          <mxGeometry x="180" y="180.5" width="90" height="50" as="geometry" />
        </mxCell>
        <mxCell id="EN3vZPTE7ob6RZtya6nI-265" style="edgeStyle=orthogonalEdgeStyle;rounded=0;orthogonalLoop=1;jettySize=auto;html=1;exitX=0.5;exitY=1;exitDx=0;exitDy=0;entryX=0.5;entryY=0;entryDx=0;entryDy=0;" edge="1" parent="1" source="EN3vZPTE7ob6RZtya6nI-263" target="EN3vZPTE7ob6RZtya6nI-256">
          <mxGeometry relative="1" as="geometry" />
        </mxCell>
        <mxCell id="EN3vZPTE7ob6RZtya6nI-263" value="tiene" style="rhombus;whiteSpace=wrap;html=1;" vertex="1" parent="1">
          <mxGeometry x="570" y="57.5" width="120" height="80" as="geometry" />
        </mxCell>
        <mxCell id="EN3vZPTE7ob6RZtya6nI-266" value="1" style="text;html=1;align=center;verticalAlign=middle;resizable=0;points=[];autosize=1;strokeColor=none;fillColor=none;" vertex="1" parent="1">
          <mxGeometry x="610" y="-85" width="30" height="30" as="geometry" />
        </mxCell>
        <mxCell id="EN3vZPTE7ob6RZtya6nI-267" value="M" style="text;html=1;align=center;verticalAlign=middle;resizable=0;points=[];autosize=1;strokeColor=none;fillColor=none;" vertex="1" parent="1">
          <mxGeometry x="355" y="153" width="30" height="30" as="geometry" />
        </mxCell>
        <mxCell id="EN3vZPTE7ob6RZtya6nI-271" style="edgeStyle=orthogonalEdgeStyle;rounded=0;orthogonalLoop=1;jettySize=auto;html=1;exitX=0;exitY=0.5;exitDx=0;exitDy=0;entryX=1;entryY=0.75;entryDx=0;entryDy=0;" edge="1" parent="1" source="EN3vZPTE7ob6RZtya6nI-268" target="EN3vZPTE7ob6RZtya6nI-256">
          <mxGeometry relative="1" as="geometry" />
        </mxCell>
        <mxCell id="EN3vZPTE7ob6RZtya6nI-268" value="tiene" style="rhombus;whiteSpace=wrap;html=1;" vertex="1" parent="1">
          <mxGeometry x="560" y="305" width="120" height="80" as="geometry" />
        </mxCell>
        <mxCell id="EN3vZPTE7ob6RZtya6nI-273" value="1" style="text;html=1;align=center;verticalAlign=middle;resizable=0;points=[];autosize=1;strokeColor=none;fillColor=none;" vertex="1" parent="1">
          <mxGeometry x="855" y="268" width="30" height="30" as="geometry" />
        </mxCell>
        <mxCell id="EN3vZPTE7ob6RZtya6nI-274" value="M" style="text;html=1;align=center;verticalAlign=middle;resizable=0;points=[];autosize=1;strokeColor=none;fillColor=none;" vertex="1" parent="1">
          <mxGeometry x="430" y="193" width="30" height="30" as="geometry" />
        </mxCell>
      </root>
    </mxGraphModel>
  </diagram>
</mxfile>
